<svg xmlns="http://www.w3.org/2000/svg" width="504" height="1080" viewBox="0 0 504 1080" fill="none">
<defs><radialGradient id="g-wood" cx="0.38" cy="0.35" r="0.7"><stop stop-color="#C98A55"/><stop offset="0.55" stop-color="#8A4E26"/><stop offset="1" stop-color="#3A1D0C"/></radialGradient><radialGradient id="g-plastic" cx="0.38" cy="0.35" r="0.7"><stop stop-color="#6E6E6E"/><stop offset="0.5" stop-color="#2E2E2E"/><stop offset="1" stop-color="#0E0E0E"/></radialGradient><linearGradient id="g-image" x1="0" y1="0" x2="1" y2="1"><stop stop-color="#C9A9A0"/><stop offset="1" stop-color="#3C3F45"/></linearGradient><clipPath id="card0"><rect x="16" y="280" width="221" height="250" rx="10"/></clipPath><clipPath id="card1"><rect x="251" y="280" width="221" height="250" rx="10"/></clipPath><clipPath id="card2"><rect x="16" y="544" width="221" height="250" rx="10"/></clipPath><clipPath id="card3"><rect x="251" y="544" width="221" height="250" rx="10"/></clipPath><filter id="sh-owner" x="184" y="120" width="344" height="480" filterUnits="userSpaceOnUse" color-interpolation-filters="sRGB"><feFlood flood-opacity="0" result="BackgroundImageFix"/><feColorMatrix in="SourceAlpha" type="matrix" values="0 0 0 0 0 0 0 0 0 0 0 0 0 0 0 0 0 0 127 0" result="hardAlpha"/><feOffset dy="16"/><feGaussianBlur stdDeviation="16"/><feColorMatrix type="matrix" values="0 0 0 0 0 0 0 0 0 0 0 0 0 0 0 0 0 0 0.55 0"/><feBlend mode="normal" in2="BackgroundImageFix" result="effect1_dropShadow"/><feBlend mode="normal" in="SourceGraphic" in2="effect1_dropShadow" result="shape"/></filter></defs>
<g id="Library panel - owner"><rect id="Background" width="504" height="1080" fill="#303030"/><g id="Top bar"><rect id="Divider" y="63" width="504" height="1" fill="#3A3A3A"/><g id="Icon" transform="translate(208.33 22) scale(0.83)" fill="none" stroke="#D9D9D9" stroke-width="2" stroke-linecap="round" stroke-linejoin="round"><path d="M4 4V20M8 4V20M12 4L16 20M17.5 4.5L20.5 19.5"/></g><text id="Title" x="238.33" y="37.68" font-family="Open Sans" font-size="16" font-weight="700" fill="#D9D9D9" >Library</text><g id="Expand" transform="translate(468 24) scale(0.67)" fill="none" stroke="#A3A9AB" stroke-width="2" stroke-linecap="round" stroke-linejoin="round"><path d="M15 3H21V9M9 21H3V15M21 3L14 10M3 21L10 14"/></g></g><g id="Search row"><g id="Filter button"><rect x="16" y="96" width="40" height="40" rx="10" fill="#464646" /><g id="Icon" transform="translate(26 106) scale(0.83)" fill="none" stroke="#FFFFFF" stroke-width="2" stroke-linecap="round" stroke-linejoin="round"><path d="M4 6H14M18 6H20M4 12H8M12 12H20M4 18H16"/><circle cx="16" cy="6" r="2"/><circle cx="10" cy="12" r="2"/><circle cx="18" cy="18" r="2"/></g><g id="Active count"><rect x="42" y="88" width="20" height="20" rx="10" fill="#5EC4DB"/><text id="Value" x="52" y="101.91" font-family="Open Sans" font-size="11" font-weight="700" fill="#0E2A30" text-anchor="middle">4</text></g></g><g id="Search field"><rect x="64" y="96" width="424" height="40" rx="12" fill="#27282B"/><g id="Search icon" transform="translate(75 107) scale(0.75)" fill="none" stroke="#A3A9AB" stroke-width="2" stroke-linecap="round" stroke-linejoin="round"><circle cx="11" cy="11" r="7"/><path d="M20 20L16.5 16.5"/></g><text id="Placeholder" x="102" y="120.62" font-family="Open Sans" font-size="13" font-weight="400" fill="#A3A9AB" >Rechercher dans la bibliothèque</text><rect id="Divider" x="354.08" y="106" width="1" height="20" fill="#464646"/><g id="Owner trigger (open)"><rect x="362.08" y="100" width="121.92" height="32" rx="8" fill="#464646"/><g id="Icon" transform="translate(374.08 108) scale(0.67)" fill="none" stroke="#D9D9D9" stroke-width="2" stroke-linecap="round" stroke-linejoin="round"><path d="M20 20A2 2 0 0 0 22 18V8A2 2 0 0 0 20 6H12.1L10 3H4A2 2 0 0 0 2 5V18A2 2 0 0 0 4 20Z"/></g><text id="Value" x="396.08" y="120.62" font-family="Open Sans" font-size="13" font-weight="600" fill="#FFFFFF" >Stellantis</text><g id="Chevron" transform="translate(460 109) scale(0.58)" fill="none" stroke="#A3A9AB" stroke-width="2" stroke-linecap="round" stroke-linejoin="round"><path d="M6 9L12 15L18 9"/></g></g></g></g><g id="Active filters"><g id="Chip / Material Wood"><rect x="16.5" y="152.5" width="133.2" height="31" rx="15.5" fill="#1D1D1D" stroke="#5EC4DB"/><text id="Group" x="28" y="172.62" font-family="Open Sans" font-size="13" font-weight="400" fill="#A3A9AB" >Material</text><text id="Value" x="83.95" y="172.62" font-family="Open Sans" font-size="13" font-weight="600" fill="#FFFFFF" >Wood</text><g id="Remove" transform="translate(128.2 162) scale(0.5)" fill="none" stroke="#A3A9AB" stroke-width="2" stroke-linecap="round" stroke-linejoin="round"><path d="M18 6L6 18M6 6L18 18"/></g></g><g id="Chip / Texture Grain"><rect x="158.7" y="152.5" width="127.95" height="31" rx="15.5" fill="#1D1D1D" stroke="#5EC4DB"/><text id="Group" x="170.2" y="172.62" font-family="Open Sans" font-size="13" font-weight="400" fill="#A3A9AB" >Texture</text><text id="Value" x="222.69" y="172.62" font-family="Open Sans" font-size="13" font-weight="600" fill="#FFFFFF" >Grain</text><g id="Remove" transform="translate(265.15 162) scale(0.5)" fill="none" stroke="#A3A9AB" stroke-width="2" stroke-linecap="round" stroke-linejoin="round"><path d="M18 6L6 18M6 6L18 18"/></g></g><g id="Chip / Color Main Blue"><rect x="295.65" y="152.5" width="142.15" height="31" rx="15.5" fill="#1D1D1D" stroke="#5EC4DB"/><text id="Group" x="307.15" y="172.62" font-family="Open Sans" font-size="13" font-weight="400" fill="#A3A9AB" >Color</text><text id="Value" x="345.58" y="172.62" font-family="Open Sans" font-size="13" font-weight="600" fill="#FFFFFF" >Main Blue</text><g id="Remove" transform="translate(416.3 162) scale(0.5)" fill="none" stroke="#A3A9AB" stroke-width="2" stroke-linecap="round" stroke-linejoin="round"><path d="M18 6L6 18M6 6L18 18"/></g></g><g id="Chip / Type Images"><rect x="16.5" y="192.5" width="120.86" height="31" rx="15.5" fill="#1D1D1D" stroke="#5EC4DB"/><text id="Group" x="28" y="212.62" font-family="Open Sans" font-size="13" font-weight="400" fill="#A3A9AB" >Type</text><text id="Value" x="62.93" y="212.62" font-family="Open Sans" font-size="13" font-weight="600" fill="#FFFFFF" >Images</text><g id="Remove" transform="translate(115.86 202) scale(0.5)" fill="none" stroke="#A3A9AB" stroke-width="2" stroke-linecap="round" stroke-linejoin="round"><path d="M18 6L6 18M6 6L18 18"/></g></g><g id="Meta"><text id="Result count" x="16" y="248.26" font-family="Open Sans" font-size="12" font-weight="400" fill="#A3A9AB" >77 results</text><text id="Clear" x="488" y="248.26" font-family="Open Sans" font-size="12" font-weight="600" fill="#D9D9D9" text-anchor="end">Clear</text></g></g><g id="Results grid"><g id="Card / Wood" clip-path="url(#card0)"><rect x="16" y="280" width="221" height="250" fill="#27282B"/><circle id="Thumbnail" cx="126.5" cy="377" r="74" fill="url(#g-wood)"/><rect id="Caption" x="16" y="475" width="221" height="55" fill="#141414"/><text id="Title" x="30" y="498.62" font-family="Open Sans" font-size="13" font-weight="600" fill="#FFFFFF" >Wood</text><text id="Subtitle" x="30" y="516.91" font-family="Open Sans" font-size="11" font-weight="400" fill="#A3A9AB" >Material</text><rect x="16.5" y="280.5" width="220" height="249" rx="9.5" stroke="#3A3A3A"/></g><g id="Card / Black plastic" clip-path="url(#card1)"><rect x="251" y="280" width="221" height="250" fill="#27282B"/><circle id="Thumbnail" cx="361.5" cy="377" r="74" fill="url(#g-plastic)"/><rect id="Caption" x="251" y="475" width="221" height="55" fill="#141414"/><text id="Title" x="265" y="498.62" font-family="Open Sans" font-size="13" font-weight="600" fill="#FFFFFF" >Black plastic</text><text id="Subtitle" x="265" y="516.91" font-family="Open Sans" font-size="11" font-weight="400" fill="#A3A9AB" >Texture</text><rect x="251.5" y="280.5" width="220" height="249" rx="9.5" stroke="#3A3A3A"/></g><g id="Card / Folder name" clip-path="url(#card2)"><rect x="16" y="544" width="221" height="250" fill="#27282B"/><path id="Thumbnail" transform="translate(94.5 615)" d="M0 6A6 6 0 0 1 6 0H24L30 8H58A6 6 0 0 1 64 14V46A6 6 0 0 1 58 52H6A6 6 0 0 1 0 46Z" fill="#3A3A3A"/><rect id="Caption" x="16" y="739" width="221" height="55" fill="#141414"/><text id="Title" x="30" y="762.62" font-family="Open Sans" font-size="13" font-weight="600" fill="#FFFFFF" >Folder name</text><text id="Subtitle" x="30" y="780.91" font-family="Open Sans" font-size="11" font-weight="400" fill="#A3A9AB" >Folder</text><rect x="16.5" y="544.5" width="220" height="249" rx="9.5" stroke="#3A3A3A"/></g><g id="Card / Image 2996303" clip-path="url(#card3)"><rect x="251" y="544" width="221" height="250" fill="#27282B"/><rect id="Thumbnail" x="251" y="544" width="221" height="195" fill="url(#g-image)"/><rect id="Caption" x="251" y="739" width="221" height="55" fill="#141414"/><text id="Title" x="265" y="762.62" font-family="Open Sans" font-size="13" font-weight="600" fill="#FFFFFF" >Image 2996303</text><text id="Subtitle" x="265" y="780.91" font-family="Open Sans" font-size="11" font-weight="400" fill="#A3A9AB" >Image</text><rect x="251.5" y="544.5" width="220" height="249" rx="9.5" stroke="#3A3A3A"/></g></g><g id="Owner menu"><g filter="url(#sh-owner)"><rect x="224.5" y="144.5" width="263" height="355" rx="15.5" fill="#262626" stroke="#464646"/></g><text id="Title" x="240" y="170.26" font-family="Open Sans" font-size="12" font-weight="600" fill="#A3A9AB" letter-spacing="0.48">OWNER</text><g id="Option / All owners"><g id="Icon" transform="translate(243 197) scale(0.75)" fill="none" stroke="#A3A9AB" stroke-width="2" stroke-linecap="round" stroke-linejoin="round"><path d="M12 2L2 7L12 12L22 7Z"/><path d="M2 17L12 22L22 17M2 12L12 17L22 12"/></g><text id="Label" x="270" y="210.97" font-family="Open Sans" font-size="14" font-weight="400" fill="#D9D9D9" >All owners</text></g><g id="Option / Global library"><g id="Icon" transform="translate(243 241) scale(0.75)" fill="none" stroke="#A3A9AB" stroke-width="2" stroke-linecap="round" stroke-linejoin="round"><circle cx="12" cy="12" r="10"/><path d="M2 12H22M12 2A15.3 15.3 0 0 1 12 22A15.3 15.3 0 0 1 12 2Z"/></g><text id="Label" x="270" y="254.97" font-family="Open Sans" font-size="14" font-weight="400" fill="#D9D9D9" >Global library</text></g><g id="Option / Personal"><g id="Icon" transform="translate(243 285) scale(0.75)" fill="none" stroke="#A3A9AB" stroke-width="2" stroke-linecap="round" stroke-linejoin="round"><circle cx="12" cy="8" r="4"/><path d="M4 21A8 8 0 0 1 20 21"/></g><text id="Label" x="270" y="298.97" font-family="Open Sans" font-size="14" font-weight="400" fill="#D9D9D9" >Personal</text></g><g id="Option / Projects"><g id="Icon" transform="translate(243 329) scale(0.75)" fill="none" stroke="#FFFFFF" stroke-width="2" stroke-linecap="round" stroke-linejoin="round"><path d="M20 20A2 2 0 0 0 22 18V8A2 2 0 0 0 20 6H12.1L10 3H4A2 2 0 0 0 2 5V18A2 2 0 0 0 4 20Z"/></g><text id="Label" x="270" y="342.97" font-family="Open Sans" font-size="14" font-weight="600" fill="#FFFFFF" >Projects</text><g id="Chevron" transform="translate(456 330) scale(0.67)" fill="none" stroke="#D9D9D9" stroke-width="2" stroke-linecap="round" stroke-linejoin="round"><path d="M6 9L12 15L18 9"/></g></g><g id="Project / Stellantis (selected)"><rect x="232" y="362" width="248" height="40" rx="10" fill="#5EC4DB" fill-opacity="0.1"/><rect x="251" y="360" width="1" height="44" fill="#3A3A3A"/><text id="Label" x="270" y="386.97" font-family="Open Sans" font-size="14" font-weight="600" fill="#FFFFFF" >Stellantis</text><g id="Check" transform="translate(456 374) scale(0.67)" fill="none" stroke="#5EC4DB" stroke-width="2.5" stroke-linecap="round" stroke-linejoin="round"><path d="M20 6L9 17L4 12"/></g></g><g id="Project / Renault"><rect x="251" y="404" width="1" height="44" fill="#3A3A3A"/><text id="Label" x="270" y="430.97" font-family="Open Sans" font-size="14" font-weight="400" fill="#D9D9D9" >Renault</text></g><g id="Project / Airbus"><rect x="251" y="448" width="1" height="44" fill="#3A3A3A"/><text id="Label" x="270" y="474.97" font-family="Open Sans" font-size="14" font-weight="400" fill="#D9D9D9" >Airbus</text></g></g></g>
</svg>
