<svg xmlns="http://www.w3.org/2000/svg" width="360" height="461" viewBox="0 0 360 461" fill="none">
<defs><filter id="sh-owner" x="0" y="0" width="360" height="445" filterUnits="userSpaceOnUse" color-interpolation-filters="sRGB"><feFlood flood-opacity="0" result="BackgroundImageFix"/><feColorMatrix in="SourceAlpha" type="matrix" values="0 0 0 0 0 0 0 0 0 0 0 0 0 0 0 0 0 0 127 0" result="hardAlpha"/><feOffset dy="16"/><feGaussianBlur stdDeviation="16"/><feColorMatrix type="matrix" values="0 0 0 0 0 0 0 0 0 0 0 0 0 0 0 0 0 0 0.55 0"/><feBlend mode="normal" in2="BackgroundImageFix" result="effect1_dropShadow"/><feBlend mode="normal" in="SourceGraphic" in2="effect1_dropShadow" result="shape"/></filter></defs>
<g id="Owner menu"><g filter="url(#sh-owner)"><rect x="40.5" y="24.5" width="279" height="364" rx="15.5" fill="#262626" stroke="#464646"/></g><text id="Title" x="56" y="50.26" font-family="Open Sans" font-size="12" font-weight="600" fill="#A3A9AB" letter-spacing="0.48">OWNER</text><text id="Clear" x="304" y="50.62" font-family="Open Sans" font-size="13" font-weight="600" fill="#A3A9AB" text-anchor="end">Clear</text><g id="Option / All owners"><g id="Icon" transform="translate(59 77) scale(0.75)" fill="none" stroke="#A3A9AB" stroke-width="2" stroke-linecap="round" stroke-linejoin="round"><path d="M12 2L2 7L12 12L22 7Z"/><path d="M2 17L12 22L22 17M2 12L12 17L22 12"/></g><text id="Label" x="86" y="90.97" font-family="Open Sans" font-size="14" font-weight="400" fill="#D9D9D9" >All owners</text><text id="Hint" x="304" y="90.26" font-family="Open Sans" font-size="12" font-weight="400" fill="#6B6B6B" text-anchor="end">Reset</text></g><rect id="Divider" x="48" y="112" width="264" height="1" fill="#3A3A3A"/><g id="Option / Global library"><rect id="Checkbox" x="58.75" y="130.75" width="16.5" height="16.5" rx="4.25" stroke="#6B6B6B" stroke-width="1.5"/><g id="Icon" transform="translate(87 130) scale(0.75)" fill="none" stroke="#A3A9AB" stroke-width="2" stroke-linecap="round" stroke-linejoin="round"><circle cx="12" cy="12" r="10"/><path d="M2 12H22M12 2A15.3 15.3 0 0 1 12 22A15.3 15.3 0 0 1 12 2Z"/></g><text id="Label" x="114" y="143.97" font-family="Open Sans" font-size="14" font-weight="400" fill="#D9D9D9" >Global library</text></g><g id="Option / Personal (checked)"><rect x="48" y="163" width="264" height="40" rx="10" fill="#5EC4DB" fill-opacity="0.1"/><g id="Checkbox (on)"><rect x="58" y="174" width="18" height="18" rx="5" fill="#5EC4DB"/><g id="Mark" transform="translate(60 176) scale(0.58)" fill="none" stroke="#0E2A30" stroke-width="3" stroke-linecap="round" stroke-linejoin="round"><path d="M20 6L9 17L4 12"/></g></g><g id="Icon" transform="translate(87 174) scale(0.75)" fill="none" stroke="#FFFFFF" stroke-width="2" stroke-linecap="round" stroke-linejoin="round"><circle cx="12" cy="8" r="4"/><path d="M4 21A8 8 0 0 1 20 21"/></g><text id="Label" x="114" y="187.97" font-family="Open Sans" font-size="14" font-weight="600" fill="#FFFFFF" >Personal</text></g><g id="Option / Projects (partial)"><g id="Checkbox (mixed)"><rect x="58" y="218" width="18" height="18" rx="5" fill="#5EC4DB"/><g id="Mark" transform="translate(60 220) scale(0.58)" fill="none" stroke="#0E2A30" stroke-width="3" stroke-linecap="round" stroke-linejoin="round"><path d="M6 12H18"/></g></g><g id="Icon" transform="translate(87 218) scale(0.75)" fill="none" stroke="#FFFFFF" stroke-width="2" stroke-linecap="round" stroke-linejoin="round"><path d="M20 20A2 2 0 0 0 22 18V8A2 2 0 0 0 20 6H12.1L10 3H4A2 2 0 0 0 2 5V18A2 2 0 0 0 4 20Z"/></g><text id="Label" x="114" y="231.97" font-family="Open Sans" font-size="14" font-weight="600" fill="#FFFFFF" >Projects</text><text id="Count" x="276" y="231.26" font-family="Open Sans" font-size="12" font-weight="400" fill="#6B6B6B" text-anchor="end">2 / 3</text><g id="Chevron" transform="translate(288 219) scale(0.67)" fill="none" stroke="#D9D9D9" stroke-width="2" stroke-linecap="round" stroke-linejoin="round"><path d="M6 9L12 15L18 9"/></g></g><g id="Project / Stellantis (checked)"><rect x="48" y="251" width="264" height="40" rx="10" fill="#5EC4DB" fill-opacity="0.1"/><rect x="67" y="249" width="1" height="44" fill="#3A3A3A"/><g id="Checkbox (on)"><rect x="86" y="262" width="18" height="18" rx="5" fill="#5EC4DB"/><g id="Mark" transform="translate(88 264) scale(0.58)" fill="none" stroke="#0E2A30" stroke-width="3" stroke-linecap="round" stroke-linejoin="round"><path d="M20 6L9 17L4 12"/></g></g><text id="Label" x="114" y="275.97" font-family="Open Sans" font-size="14" font-weight="600" fill="#FFFFFF" >Stellantis</text></g><g id="Project / Renault (checked)"><rect x="48" y="295" width="264" height="40" rx="10" fill="#5EC4DB" fill-opacity="0.1"/><rect x="67" y="293" width="1" height="44" fill="#3A3A3A"/><g id="Checkbox (on)"><rect x="86" y="306" width="18" height="18" rx="5" fill="#5EC4DB"/><g id="Mark" transform="translate(88 308) scale(0.58)" fill="none" stroke="#0E2A30" stroke-width="3" stroke-linecap="round" stroke-linejoin="round"><path d="M20 6L9 17L4 12"/></g></g><text id="Label" x="114" y="319.97" font-family="Open Sans" font-size="14" font-weight="600" fill="#FFFFFF" >Renault</text></g><g id="Project / Airbus"><rect x="67" y="337" width="1" height="44" fill="#3A3A3A"/><rect id="Checkbox" x="86.75" y="350.75" width="16.5" height="16.5" rx="4.25" stroke="#6B6B6B" stroke-width="1.5"/><text id="Label" x="114" y="363.97" font-family="Open Sans" font-size="14" font-weight="400" fill="#D9D9D9" >Airbus</text></g></g>
</svg>
