<svg xmlns="http://www.w3.org/2000/svg" width="701" height="222" viewBox="0 0 701 222" fill="none">
<defs><linearGradient id="C-eu" x1="1" y1="0" x2="0" y2="1"><stop offset="0.09" stop-color="#6CE0B1"/><stop offset="0.47" stop-color="#818BFD"/><stop offset="0.86" stop-color="#EF7AC5"/></linearGradient></defs>
<g id="Prompt bar - C"><rect id="Background" y="144" width="701" height="78" rx="16" fill="#303030"/><g id="Add button (open)"><circle cx="43" cy="183" r="24" fill="url(#C-eu)"/><g id="Icon" transform="translate(31 171) scale(1)" fill="none" stroke="#FFFFFF" stroke-width="2" stroke-linecap="round" stroke-linejoin="round"><path d="M12 5V19M5 12H19"/></g></g><rect id="Separator" x="87" y="158" width="1" height="49" fill="#3E3E3E"/><g id="Toolbar (origine)"><g id="Select (active)"><circle cx="131" cy="183" r="31" fill="#464646"/><path id="Cursor" transform="translate(116 169) scale(1.25)" d="M4.04 4.69A.5.5 0 0 1 4.69 4.04L20.69 10.54A.5.5 0 0 1 20.63 11.48L14.5 13.06A2 2 0 0 0 13.07 14.5L11.49 20.62A.5.5 0 0 1 10.54 20.69Z" fill="#FFFFFF"/></g><g id="Hand" transform="translate(185 171) scale(1)" fill="none" stroke="#B4B4B4" stroke-width="2" stroke-linecap="round" stroke-linejoin="round"><path d="M18 11V6A2 2 0 0 0 14 6M14 10V4A2 2 0 0 0 10 4V6M10 10.5V6A2 2 0 0 0 6 6V14"/><path d="M18 8A2 2 0 1 1 22 8V14A8 8 0 0 1 14 22H12C9.2 22 7.5 21.14 6.01 19.66L2.41 16.06A2 2 0 0 1 5.24 13.24L7 15"/></g><g id="Note" transform="translate(255 171) scale(1)" fill="none" stroke="#B4B4B4" stroke-width="2" stroke-linecap="round" stroke-linejoin="round"><path d="M15 21H5A2 2 0 0 1 3 19V5A2 2 0 0 1 5 3H19A2 2 0 0 1 21 5V15Z"/><path d="M15 21V17A2 2 0 0 1 17 15H21M7 8H17M7 12H13"/></g><rect id="Separator" x="311" y="158" width="1" height="49" fill="#3E3E3E"/><g id="Undo (disabled)" transform="translate(343 171) scale(1)" fill="none" stroke="#727272" stroke-width="2" stroke-linecap="round" stroke-linejoin="round"><path d="M3 12A9 9 0 1 0 12 3A9.75 9.75 0 0 0 5.26 5.74L3 8"/><path d="M3 3V8H8"/></g><g id="Redo (disabled)" transform="translate(413 171) scale(1)" fill="none" stroke="#727272" stroke-width="2" stroke-linecap="round" stroke-linejoin="round"><path d="M21 12A9 9 0 1 1 12 3C14.52 3 16.93 4 18.74 5.74L21 8"/><path d="M21 3V8H16"/></g><rect id="Separator" x="469" y="158" width="1" height="49" fill="#3E3E3E"/><g id="Zoom out" transform="translate(500 171) scale(1)" fill="none" stroke="#B4B4B4" stroke-width="2" stroke-linecap="round" stroke-linejoin="round"><circle cx="11" cy="11" r="8"/><path d="M21 21L16.65 16.65M8 11H14"/></g><text id="Zoom value" x="586" y="188.68" font-family="Open Sans" font-size="16" font-weight="600" fill="#B4B4B4" text-anchor="middle">26%</text><g id="Zoom in" transform="translate(649 171) scale(1)" fill="none" stroke="#B4B4B4" stroke-width="2" stroke-linecap="round" stroke-linejoin="round"><circle cx="11" cy="11" r="8"/><path d="M21 21L16.65 16.65M11 8V14M8 11H14"/></g></g><g id="Menu"><rect x="0.5" y="0.5" width="299" height="135" rx="15.5" fill="#303030" stroke="#464646"/><g id="Item / Importer une image"><rect x="8" y="8" width="284" height="60" rx="12" fill="#464646" fill-opacity="0.6"/><rect x="18" y="20" width="36" height="36" rx="18" fill="#464646"/><g id="Icon" transform="translate(26 28) scale(0.83)" fill="none" stroke="#FFFFFF" stroke-width="2" stroke-linecap="round" stroke-linejoin="round"><path d="M21 12V19A2 2 0 0 1 19 21H5A2 2 0 0 1 3 19V5A2 2 0 0 1 5 3H12"/><path d="M16 5H22M19 2V8"/><circle cx="9" cy="9" r="2"/><path d="M21 15L17.9 11.9A2 2 0 0 0 15.1 11.9L6 21"/></g><text id="Title" x="66" y="33.97" font-family="Open Sans" font-size="14" font-weight="600" fill="#FFFFFF" >Importer une image</text><text id="Description" x="66" y="52.26" font-family="Open Sans" font-size="12" font-weight="400" fill="#A3A9AB" >PNG ou JPG, jusqu'à 10 Mo</text></g><g id="Item / Prompt IA"><rect x="18" y="80" width="36" height="36" rx="18" fill="url(#C-eu)"/><g id="Icon" transform="translate(26 88) scale(0.83)" fill="none" stroke="#FFFFFF" stroke-width="2" stroke-linecap="round" stroke-linejoin="round"><path d="M9.94 15.5A2 2 0 0 0 8.5 14.06L2.37 12.48A.5.5 0 0 1 2.37 11.52L8.5 9.94A2 2 0 0 0 9.94 8.5L11.52 2.37A.5.5 0 0 1 12.48 2.37L14.06 8.5A2 2 0 0 0 15.5 9.94L21.63 11.52A.5.5 0 0 1 21.63 12.48L15.5 14.06A2 2 0 0 0 14.06 15.5L12.48 21.63A.5.5 0 0 1 11.52 21.63Z"/><path d="M20 3V7M22 5H18M4 17V19M5 18H3"/></g><text id="Title" x="66" y="93.97" font-family="Open Sans" font-size="14" font-weight="600" fill="#FFFFFF" >Prompt IA</text><text id="Description" x="66" y="112.26" font-family="Open Sans" font-size="12" font-weight="400" fill="#A3A9AB" >Génère à partir d'une description</text></g></g></g>
</svg>
